<mxfile host="app.diagrams.net" agent="Mozilla/5.0 (Macintosh; Intel Mac OS X 10_15_7) AppleWebKit/537.36 (KHTML, like Gecko) Chrome/129.0.0.0 Safari/537.36" version="24.7.17">
  <diagram name="第 1 页" id="oGx5aqVjhwPbbsenspfN">
    <mxGraphModel dx="1168" dy="437" grid="0" gridSize="10" guides="1" tooltips="1" connect="1" arrows="1" fold="1" page="0" pageScale="1" pageWidth="1200" pageHeight="1920" math="1" shadow="0">
      <root>
        <mxCell id="0" />
        <mxCell id="1" parent="0" />
        <mxCell id="AZcYiFU8isNGm3yY8wKM-91" value="$$$$" style="text;html=1;align=center;verticalAlign=middle;resizable=0;points=[];autosize=1;strokeColor=none;fillColor=none;" vertex="1" parent="1">
          <mxGeometry x="988" y="404" width="45" height="26" as="geometry" />
        </mxCell>
        <mxCell id="AZcYiFU8isNGm3yY8wKM-103" value="" style="edgeStyle=orthogonalEdgeStyle;rounded=0;orthogonalLoop=1;jettySize=auto;html=1;endArrow=diamondThin;endFill=0;" edge="1" parent="1" source="AZcYiFU8isNGm3yY8wKM-96" target="AZcYiFU8isNGm3yY8wKM-102">
          <mxGeometry relative="1" as="geometry" />
        </mxCell>
        <mxCell id="AZcYiFU8isNGm3yY8wKM-96" value="a[i]" style="ellipse;whiteSpace=wrap;html=1;" vertex="1" parent="1">
          <mxGeometry x="159" y="603" width="33" height="32" as="geometry" />
        </mxCell>
        <mxCell id="AZcYiFU8isNGm3yY8wKM-100" value="" style="group" vertex="1" connectable="0" parent="1">
          <mxGeometry x="-208" y="413" width="1097" height="155" as="geometry" />
        </mxCell>
        <mxCell id="AZcYiFU8isNGm3yY8wKM-93" value="$$PATTERN = A^+BC^+D^*EF^+ $$" style="text;html=1;align=center;verticalAlign=middle;resizable=0;points=[];autosize=1;strokeColor=none;fillColor=none;" vertex="1" parent="AZcYiFU8isNGm3yY8wKM-100">
          <mxGeometry x="362" width="212" height="26" as="geometry" />
        </mxCell>
        <mxCell id="AZcYiFU8isNGm3yY8wKM-94" value="$$\begin{align} &amp;amp;VALUE\_CONDITION = [&#39;AVG(A) &amp;gt;= 10&#39;,&amp;nbsp; &#39;B&amp;gt;=15&#39;, \\ &amp;amp; &#39;SUM\_SQUARE\_DIFFERENCE(C) &amp;gt;= 10&#39;,\\&amp;amp;&#39;AVG(D) &amp;gt;= 10&#39;, &#39;MAX(D) + AVG(C) &amp;gt;= 20&#39;, \\ &amp;amp;&amp;nbsp; &#39;E&amp;gt;=10&#39;, &#39;AVG(F) &amp;gt;= 10&#39;]\end{align}$$" style="text;html=1;align=center;verticalAlign=middle;resizable=0;points=[];autosize=1;strokeColor=none;fillColor=none;" vertex="1" parent="AZcYiFU8isNGm3yY8wKM-100">
          <mxGeometry y="49" width="1097" height="26" as="geometry" />
        </mxCell>
        <mxCell id="AZcYiFU8isNGm3yY8wKM-95" value="$$TIME\_LIMIT \leq 20\ SECOND$$" style="text;html=1;align=center;verticalAlign=middle;resizable=0;points=[];autosize=1;strokeColor=none;fillColor=none;" vertex="1" parent="AZcYiFU8isNGm3yY8wKM-100">
          <mxGeometry x="368" y="103" width="211" height="26" as="geometry" />
        </mxCell>
        <mxCell id="AZcYiFU8isNGm3yY8wKM-98" value="(a) 模式定义" style="text;html=1;align=center;verticalAlign=middle;resizable=0;points=[];autosize=1;strokeColor=none;fillColor=none;" vertex="1" parent="AZcYiFU8isNGm3yY8wKM-100">
          <mxGeometry x="460" y="129" width="84" height="26" as="geometry" />
        </mxCell>
        <mxCell id="AZcYiFU8isNGm3yY8wKM-105" value="" style="edgeStyle=orthogonalEdgeStyle;rounded=0;orthogonalLoop=1;jettySize=auto;html=1;" edge="1" parent="1" source="AZcYiFU8isNGm3yY8wKM-102" target="AZcYiFU8isNGm3yY8wKM-104">
          <mxGeometry relative="1" as="geometry" />
        </mxCell>
        <mxCell id="AZcYiFU8isNGm3yY8wKM-102" value="B" style="ellipse;whiteSpace=wrap;html=1;" vertex="1" parent="1">
          <mxGeometry x="209" y="603" width="33" height="32" as="geometry" />
        </mxCell>
        <mxCell id="AZcYiFU8isNGm3yY8wKM-107" value="" style="edgeStyle=orthogonalEdgeStyle;rounded=0;orthogonalLoop=1;jettySize=auto;html=1;endArrow=diamondThin;endFill=0;" edge="1" parent="1" source="AZcYiFU8isNGm3yY8wKM-104" target="AZcYiFU8isNGm3yY8wKM-106">
          <mxGeometry relative="1" as="geometry" />
        </mxCell>
        <mxCell id="AZcYiFU8isNGm3yY8wKM-104" value="c[i]" style="ellipse;whiteSpace=wrap;html=1;" vertex="1" parent="1">
          <mxGeometry x="259" y="603" width="33" height="32" as="geometry" />
        </mxCell>
        <mxCell id="AZcYiFU8isNGm3yY8wKM-109" value="" style="edgeStyle=orthogonalEdgeStyle;rounded=0;orthogonalLoop=1;jettySize=auto;html=1;endArrow=diamondThin;endFill=0;" edge="1" parent="1" source="AZcYiFU8isNGm3yY8wKM-106" target="AZcYiFU8isNGm3yY8wKM-108">
          <mxGeometry relative="1" as="geometry" />
        </mxCell>
        <mxCell id="AZcYiFU8isNGm3yY8wKM-106" value="d[i]" style="ellipse;whiteSpace=wrap;html=1;" vertex="1" parent="1">
          <mxGeometry x="309" y="603" width="33" height="32" as="geometry" />
        </mxCell>
        <mxCell id="AZcYiFU8isNGm3yY8wKM-111" value="" style="edgeStyle=orthogonalEdgeStyle;rounded=0;orthogonalLoop=1;jettySize=auto;html=1;endArrow=classic;endFill=1;" edge="1" parent="1" source="AZcYiFU8isNGm3yY8wKM-108" target="AZcYiFU8isNGm3yY8wKM-110">
          <mxGeometry relative="1" as="geometry" />
        </mxCell>
        <mxCell id="AZcYiFU8isNGm3yY8wKM-108" value="e" style="ellipse;whiteSpace=wrap;html=1;" vertex="1" parent="1">
          <mxGeometry x="359" y="603" width="33" height="32" as="geometry" />
        </mxCell>
        <mxCell id="AZcYiFU8isNGm3yY8wKM-114" style="edgeStyle=orthogonalEdgeStyle;rounded=0;orthogonalLoop=1;jettySize=auto;html=1;endArrow=diamondThin;endFill=0;" edge="1" parent="1" source="AZcYiFU8isNGm3yY8wKM-110" target="AZcYiFU8isNGm3yY8wKM-113">
          <mxGeometry relative="1" as="geometry" />
        </mxCell>
        <mxCell id="AZcYiFU8isNGm3yY8wKM-110" value="f[i]" style="ellipse;whiteSpace=wrap;html=1;" vertex="1" parent="1">
          <mxGeometry x="410" y="603" width="33" height="32" as="geometry" />
        </mxCell>
        <mxCell id="AZcYiFU8isNGm3yY8wKM-113" value="" style="ellipse;whiteSpace=wrap;html=1;" vertex="1" parent="1">
          <mxGeometry x="457" y="603" width="33" height="32" as="geometry" />
        </mxCell>
        <mxCell id="AZcYiFU8isNGm3yY8wKM-115" value="" style="ellipse;whiteSpace=wrap;html=1;" vertex="1" parent="1">
          <mxGeometry x="463.5" y="609" width="20" height="20" as="geometry" />
        </mxCell>
        <mxCell id="AZcYiFU8isNGm3yY8wKM-118" style="edgeStyle=orthogonalEdgeStyle;rounded=0;orthogonalLoop=1;jettySize=auto;html=1;exitX=0;exitY=1;exitDx=0;exitDy=0;entryX=1;entryY=1;entryDx=0;entryDy=0;curved=1;" edge="1" parent="1" source="AZcYiFU8isNGm3yY8wKM-96" target="AZcYiFU8isNGm3yY8wKM-96">
          <mxGeometry relative="1" as="geometry">
            <Array as="points">
              <mxPoint x="164" y="644" />
              <mxPoint x="187" y="644" />
            </Array>
          </mxGeometry>
        </mxCell>
        <mxCell id="AZcYiFU8isNGm3yY8wKM-119" value="`take`" style="text;html=1;align=center;verticalAlign=middle;resizable=0;points=[];autosize=1;strokeColor=none;fillColor=none;" vertex="1" parent="1">
          <mxGeometry x="151" y="640" width="49" height="26" as="geometry" />
        </mxCell>
        <mxCell id="AZcYiFU8isNGm3yY8wKM-120" style="edgeStyle=orthogonalEdgeStyle;rounded=0;orthogonalLoop=1;jettySize=auto;html=1;exitX=0;exitY=1;exitDx=0;exitDy=0;entryX=1;entryY=1;entryDx=0;entryDy=0;curved=1;" edge="1" parent="1">
          <mxGeometry relative="1" as="geometry">
            <mxPoint x="264" y="630" as="sourcePoint" />
            <mxPoint x="287" y="630" as="targetPoint" />
            <Array as="points">
              <mxPoint x="264" y="644" />
              <mxPoint x="287" y="644" />
            </Array>
          </mxGeometry>
        </mxCell>
        <mxCell id="AZcYiFU8isNGm3yY8wKM-121" value="`take`" style="text;html=1;align=center;verticalAlign=middle;resizable=0;points=[];autosize=1;strokeColor=none;fillColor=none;" vertex="1" parent="1">
          <mxGeometry x="251" y="640" width="49" height="26" as="geometry" />
        </mxCell>
        <mxCell id="AZcYiFU8isNGm3yY8wKM-122" style="edgeStyle=orthogonalEdgeStyle;rounded=0;orthogonalLoop=1;jettySize=auto;html=1;exitX=0;exitY=1;exitDx=0;exitDy=0;entryX=1;entryY=1;entryDx=0;entryDy=0;curved=1;" edge="1" parent="1">
          <mxGeometry relative="1" as="geometry">
            <mxPoint x="314" y="630" as="sourcePoint" />
            <mxPoint x="337" y="630" as="targetPoint" />
            <Array as="points">
              <mxPoint x="314" y="644" />
              <mxPoint x="337" y="644" />
            </Array>
          </mxGeometry>
        </mxCell>
        <mxCell id="AZcYiFU8isNGm3yY8wKM-123" value="`take`" style="text;html=1;align=center;verticalAlign=middle;resizable=0;points=[];autosize=1;strokeColor=none;fillColor=none;" vertex="1" parent="1">
          <mxGeometry x="301" y="640" width="49" height="26" as="geometry" />
        </mxCell>
        <mxCell id="AZcYiFU8isNGm3yY8wKM-124" style="edgeStyle=orthogonalEdgeStyle;rounded=0;orthogonalLoop=1;jettySize=auto;html=1;exitX=0;exitY=1;exitDx=0;exitDy=0;entryX=1;entryY=1;entryDx=0;entryDy=0;curved=1;" edge="1" parent="1">
          <mxGeometry relative="1" as="geometry">
            <mxPoint x="415" y="630" as="sourcePoint" />
            <mxPoint x="438" y="630" as="targetPoint" />
            <Array as="points">
              <mxPoint x="415" y="644" />
              <mxPoint x="438" y="644" />
            </Array>
          </mxGeometry>
        </mxCell>
        <mxCell id="AZcYiFU8isNGm3yY8wKM-125" value="`take`" style="text;html=1;align=center;verticalAlign=middle;resizable=0;points=[];autosize=1;strokeColor=none;fillColor=none;" vertex="1" parent="1">
          <mxGeometry x="402" y="640" width="49" height="26" as="geometry" />
        </mxCell>
        <mxCell id="AZcYiFU8isNGm3yY8wKM-126" style="edgeStyle=orthogonalEdgeStyle;rounded=0;orthogonalLoop=1;jettySize=auto;html=1;entryX=0;entryY=0;entryDx=0;entryDy=0;curved=1;dashed=1;" edge="1" parent="1" target="AZcYiFU8isNGm3yY8wKM-96">
          <mxGeometry relative="1" as="geometry">
            <mxPoint x="187" y="608" as="sourcePoint" />
            <Array as="points">
              <mxPoint x="187" y="594" />
              <mxPoint x="164" y="594" />
            </Array>
          </mxGeometry>
        </mxCell>
        <mxCell id="AZcYiFU8isNGm3yY8wKM-127" value="$$ignore$$" style="text;html=1;align=center;verticalAlign=middle;resizable=0;points=[];autosize=1;strokeColor=none;fillColor=none;" vertex="1" parent="1">
          <mxGeometry x="135" y="573" width="78" height="26" as="geometry" />
        </mxCell>
        <mxCell id="AZcYiFU8isNGm3yY8wKM-128" style="edgeStyle=orthogonalEdgeStyle;rounded=0;orthogonalLoop=1;jettySize=auto;html=1;entryX=0;entryY=0;entryDx=0;entryDy=0;curved=1;dashed=1;" edge="1" parent="1">
          <mxGeometry relative="1" as="geometry">
            <mxPoint x="287" y="608" as="sourcePoint" />
            <mxPoint x="264" y="608" as="targetPoint" />
            <Array as="points">
              <mxPoint x="287" y="594" />
              <mxPoint x="264" y="594" />
            </Array>
          </mxGeometry>
        </mxCell>
        <mxCell id="AZcYiFU8isNGm3yY8wKM-129" value="$$ignore$$" style="text;html=1;align=center;verticalAlign=middle;resizable=0;points=[];autosize=1;strokeColor=none;fillColor=none;" vertex="1" parent="1">
          <mxGeometry x="235" y="573" width="78" height="26" as="geometry" />
        </mxCell>
        <mxCell id="AZcYiFU8isNGm3yY8wKM-130" style="edgeStyle=orthogonalEdgeStyle;rounded=0;orthogonalLoop=1;jettySize=auto;html=1;entryX=0;entryY=0;entryDx=0;entryDy=0;curved=1;dashed=1;" edge="1" parent="1">
          <mxGeometry relative="1" as="geometry">
            <mxPoint x="337" y="608" as="sourcePoint" />
            <mxPoint x="314" y="608" as="targetPoint" />
            <Array as="points">
              <mxPoint x="337" y="594" />
              <mxPoint x="314" y="594" />
            </Array>
          </mxGeometry>
        </mxCell>
        <mxCell id="AZcYiFU8isNGm3yY8wKM-131" value="$$ignore$$" style="text;html=1;align=center;verticalAlign=middle;resizable=0;points=[];autosize=1;strokeColor=none;fillColor=none;" vertex="1" parent="1">
          <mxGeometry x="285" y="573" width="78" height="26" as="geometry" />
        </mxCell>
        <mxCell id="AZcYiFU8isNGm3yY8wKM-132" style="edgeStyle=orthogonalEdgeStyle;rounded=0;orthogonalLoop=1;jettySize=auto;html=1;entryX=0;entryY=0;entryDx=0;entryDy=0;curved=1;dashed=1;" edge="1" parent="1">
          <mxGeometry relative="1" as="geometry">
            <mxPoint x="437.5" y="608" as="sourcePoint" />
            <mxPoint x="414.5" y="608" as="targetPoint" />
            <Array as="points">
              <mxPoint x="437.5" y="594" />
              <mxPoint x="414.5" y="594" />
            </Array>
          </mxGeometry>
        </mxCell>
        <mxCell id="AZcYiFU8isNGm3yY8wKM-133" value="$$ignore$$" style="text;html=1;align=center;verticalAlign=middle;resizable=0;points=[];autosize=1;strokeColor=none;fillColor=none;" vertex="1" parent="1">
          <mxGeometry x="385.5" y="573" width="78" height="26" as="geometry" />
        </mxCell>
        <mxCell id="AZcYiFU8isNGm3yY8wKM-136" value="$${\tiny procced} $$" style="text;html=1;align=center;verticalAlign=middle;resizable=0;points=[];autosize=1;strokeColor=none;fillColor=none;" vertex="1" parent="1">
          <mxGeometry x="144" y="587" width="124" height="26" as="geometry" />
        </mxCell>
        <mxCell id="AZcYiFU8isNGm3yY8wKM-137" value="$${\tiny procced} $$" style="text;html=1;align=center;verticalAlign=middle;resizable=0;points=[];autosize=1;strokeColor=none;fillColor=none;" vertex="1" parent="1">
          <mxGeometry x="239" y="587" width="124" height="26" as="geometry" />
        </mxCell>
        <mxCell id="AZcYiFU8isNGm3yY8wKM-138" value="$${\tiny procced} $$" style="text;html=1;align=center;verticalAlign=middle;resizable=0;points=[];autosize=1;strokeColor=none;fillColor=none;" vertex="1" parent="1">
          <mxGeometry x="295" y="587" width="124" height="26" as="geometry" />
        </mxCell>
        <mxCell id="AZcYiFU8isNGm3yY8wKM-141" value="$${\tiny procced} $$" style="text;html=1;align=center;verticalAlign=middle;resizable=0;points=[];autosize=1;strokeColor=none;fillColor=none;" vertex="1" parent="1">
          <mxGeometry x="395" y="587" width="124" height="26" as="geometry" />
        </mxCell>
        <mxCell id="AZcYiFU8isNGm3yY8wKM-142" value="(b) 模式查询的`NFA_b`表达" style="text;html=1;align=center;verticalAlign=middle;resizable=0;points=[];autosize=1;strokeColor=none;fillColor=none;" vertex="1" parent="1">
          <mxGeometry x="212" y="674" width="165" height="26" as="geometry" />
        </mxCell>
        <mxCell id="AZcYiFU8isNGm3yY8wKM-80" value="" style="rounded=0;whiteSpace=wrap;html=1;fillColor=none;strokeColor=default;dashed=1;" vertex="1" parent="1">
          <mxGeometry x="702" y="426.5" width="120" height="229" as="geometry" />
        </mxCell>
        <mxCell id="AZcYiFU8isNGm3yY8wKM-1" value="A" style="ellipse;whiteSpace=wrap;html=1;aspect=fixed;" vertex="1" parent="1">
          <mxGeometry x="534" y="460" width="30" height="30" as="geometry" />
        </mxCell>
        <mxCell id="AZcYiFU8isNGm3yY8wKM-2" value="a[i]" style="text;html=1;align=center;verticalAlign=middle;resizable=0;points=[];autosize=1;strokeColor=none;fillColor=none;" vertex="1" parent="1">
          <mxGeometry x="532" y="428" width="34" height="26" as="geometry" />
        </mxCell>
        <mxCell id="AZcYiFU8isNGm3yY8wKM-37" style="edgeStyle=orthogonalEdgeStyle;rounded=0;orthogonalLoop=1;jettySize=auto;html=1;exitX=0.5;exitY=0;exitDx=0;exitDy=0;" edge="1" parent="1" source="AZcYiFU8isNGm3yY8wKM-4" target="AZcYiFU8isNGm3yY8wKM-1">
          <mxGeometry relative="1" as="geometry">
            <mxPoint x="549" y="556" as="targetPoint" />
          </mxGeometry>
        </mxCell>
        <mxCell id="AZcYiFU8isNGm3yY8wKM-4" value="A" style="ellipse;whiteSpace=wrap;html=1;aspect=fixed;" vertex="1" parent="1">
          <mxGeometry x="534" y="592" width="30" height="30" as="geometry" />
        </mxCell>
        <mxCell id="AZcYiFU8isNGm3yY8wKM-38" style="edgeStyle=orthogonalEdgeStyle;rounded=0;orthogonalLoop=1;jettySize=auto;html=1;" edge="1" parent="1" source="AZcYiFU8isNGm3yY8wKM-7" target="AZcYiFU8isNGm3yY8wKM-1">
          <mxGeometry relative="1" as="geometry" />
        </mxCell>
        <mxCell id="AZcYiFU8isNGm3yY8wKM-7" value="B" style="rounded=0;whiteSpace=wrap;html=1;" vertex="1" parent="1">
          <mxGeometry x="627" y="460" width="30" height="30" as="geometry" />
        </mxCell>
        <mxCell id="AZcYiFU8isNGm3yY8wKM-39" style="edgeStyle=orthogonalEdgeStyle;rounded=0;orthogonalLoop=1;jettySize=auto;html=1;" edge="1" parent="1" source="AZcYiFU8isNGm3yY8wKM-8" target="AZcYiFU8isNGm3yY8wKM-4">
          <mxGeometry relative="1" as="geometry" />
        </mxCell>
        <mxCell id="AZcYiFU8isNGm3yY8wKM-48" style="rounded=0;orthogonalLoop=1;jettySize=auto;html=1;exitX=0;exitY=0.5;exitDx=0;exitDy=0;entryX=1;entryY=1;entryDx=0;entryDy=0;" edge="1" parent="1" source="AZcYiFU8isNGm3yY8wKM-8" target="AZcYiFU8isNGm3yY8wKM-1">
          <mxGeometry relative="1" as="geometry">
            <mxPoint x="564" y="541" as="targetPoint" />
          </mxGeometry>
        </mxCell>
        <mxCell id="AZcYiFU8isNGm3yY8wKM-8" value="B" style="rounded=0;whiteSpace=wrap;html=1;" vertex="1" parent="1">
          <mxGeometry x="625" y="592" width="30" height="30" as="geometry" />
        </mxCell>
        <mxCell id="AZcYiFU8isNGm3yY8wKM-41" style="rounded=0;orthogonalLoop=1;jettySize=auto;html=1;entryX=1;entryY=0.5;entryDx=0;entryDy=0;" edge="1" parent="1" source="AZcYiFU8isNGm3yY8wKM-14" target="AZcYiFU8isNGm3yY8wKM-7">
          <mxGeometry relative="1" as="geometry">
            <mxPoint x="722" y="490" as="targetPoint" />
          </mxGeometry>
        </mxCell>
        <mxCell id="AZcYiFU8isNGm3yY8wKM-86" style="rounded=0;orthogonalLoop=1;jettySize=auto;html=1;exitX=0;exitY=1;exitDx=0;exitDy=0;entryX=1;entryY=0.25;entryDx=0;entryDy=0;" edge="1" parent="1" source="AZcYiFU8isNGm3yY8wKM-14" target="AZcYiFU8isNGm3yY8wKM-8">
          <mxGeometry relative="1" as="geometry" />
        </mxCell>
        <mxCell id="AZcYiFU8isNGm3yY8wKM-14" value="C" style="ellipse;whiteSpace=wrap;html=1;aspect=fixed;" vertex="1" parent="1">
          <mxGeometry x="707" y="526" width="30" height="30" as="geometry" />
        </mxCell>
        <mxCell id="AZcYiFU8isNGm3yY8wKM-42" style="edgeStyle=orthogonalEdgeStyle;rounded=0;orthogonalLoop=1;jettySize=auto;html=1;exitX=0.5;exitY=0;exitDx=0;exitDy=0;" edge="1" parent="1" source="AZcYiFU8isNGm3yY8wKM-15" target="AZcYiFU8isNGm3yY8wKM-14">
          <mxGeometry relative="1" as="geometry" />
        </mxCell>
        <mxCell id="AZcYiFU8isNGm3yY8wKM-56" style="edgeStyle=orthogonalEdgeStyle;rounded=0;orthogonalLoop=1;jettySize=auto;html=1;" edge="1" parent="1" source="AZcYiFU8isNGm3yY8wKM-15" target="AZcYiFU8isNGm3yY8wKM-8">
          <mxGeometry relative="1" as="geometry" />
        </mxCell>
        <mxCell id="AZcYiFU8isNGm3yY8wKM-87" style="rounded=0;orthogonalLoop=1;jettySize=auto;html=1;exitX=0;exitY=0;exitDx=0;exitDy=0;entryX=1;entryY=0.75;entryDx=0;entryDy=0;" edge="1" parent="1" source="AZcYiFU8isNGm3yY8wKM-15" target="AZcYiFU8isNGm3yY8wKM-7">
          <mxGeometry relative="1" as="geometry" />
        </mxCell>
        <mxCell id="AZcYiFU8isNGm3yY8wKM-15" value="C" style="ellipse;whiteSpace=wrap;html=1;aspect=fixed;" vertex="1" parent="1">
          <mxGeometry x="707" y="592" width="30" height="30" as="geometry" />
        </mxCell>
        <mxCell id="AZcYiFU8isNGm3yY8wKM-84" style="edgeStyle=orthogonalEdgeStyle;rounded=0;orthogonalLoop=1;jettySize=auto;html=1;" edge="1" parent="1" source="AZcYiFU8isNGm3yY8wKM-19" target="AZcYiFU8isNGm3yY8wKM-74">
          <mxGeometry relative="1" as="geometry" />
        </mxCell>
        <mxCell id="AZcYiFU8isNGm3yY8wKM-85" style="rounded=0;orthogonalLoop=1;jettySize=auto;html=1;exitX=0;exitY=0.25;exitDx=0;exitDy=0;entryX=1;entryY=1;entryDx=0;entryDy=0;" edge="1" parent="1" source="AZcYiFU8isNGm3yY8wKM-19" target="AZcYiFU8isNGm3yY8wKM-72">
          <mxGeometry relative="1" as="geometry" />
        </mxCell>
        <mxCell id="AZcYiFU8isNGm3yY8wKM-19" value="E" style="rounded=0;whiteSpace=wrap;html=1;" vertex="1" parent="1">
          <mxGeometry x="863" y="526" width="30" height="30" as="geometry" />
        </mxCell>
        <mxCell id="AZcYiFU8isNGm3yY8wKM-45" style="edgeStyle=orthogonalEdgeStyle;rounded=0;orthogonalLoop=1;jettySize=auto;html=1;exitX=0;exitY=0.5;exitDx=0;exitDy=0;" edge="1" parent="1" source="AZcYiFU8isNGm3yY8wKM-22" target="AZcYiFU8isNGm3yY8wKM-19">
          <mxGeometry relative="1" as="geometry">
            <mxPoint x="876" y="541" as="targetPoint" />
          </mxGeometry>
        </mxCell>
        <mxCell id="AZcYiFU8isNGm3yY8wKM-22" value="F" style="ellipse;whiteSpace=wrap;html=1;aspect=fixed;" vertex="1" parent="1">
          <mxGeometry x="942" y="526" width="30" height="30" as="geometry" />
        </mxCell>
        <mxCell id="AZcYiFU8isNGm3yY8wKM-46" style="edgeStyle=orthogonalEdgeStyle;rounded=0;orthogonalLoop=1;jettySize=auto;html=1;" edge="1" parent="1" source="AZcYiFU8isNGm3yY8wKM-24" target="AZcYiFU8isNGm3yY8wKM-22">
          <mxGeometry relative="1" as="geometry" />
        </mxCell>
        <mxCell id="AZcYiFU8isNGm3yY8wKM-24" value="F" style="ellipse;whiteSpace=wrap;html=1;aspect=fixed;" vertex="1" parent="1">
          <mxGeometry x="942" y="592" width="30" height="30" as="geometry" />
        </mxCell>
        <mxCell id="AZcYiFU8isNGm3yY8wKM-44" style="rounded=0;orthogonalLoop=1;jettySize=auto;html=1;entryX=1;entryY=0;entryDx=0;entryDy=0;" edge="1" parent="1" source="AZcYiFU8isNGm3yY8wKM-19" target="AZcYiFU8isNGm3yY8wKM-76">
          <mxGeometry relative="1" as="geometry" />
        </mxCell>
        <mxCell id="AZcYiFU8isNGm3yY8wKM-58" value="b" style="text;html=1;align=center;verticalAlign=middle;resizable=0;points=[];autosize=1;strokeColor=none;fillColor=none;" vertex="1" parent="1">
          <mxGeometry x="629.5" y="431" width="25" height="26" as="geometry" />
        </mxCell>
        <mxCell id="AZcYiFU8isNGm3yY8wKM-60" value="c[i]" style="text;html=1;align=center;verticalAlign=middle;resizable=0;points=[];autosize=1;strokeColor=none;fillColor=none;" vertex="1" parent="1">
          <mxGeometry x="705.5" y="431" width="33" height="26" as="geometry" />
        </mxCell>
        <mxCell id="AZcYiFU8isNGm3yY8wKM-61" value="d[i]" style="text;html=1;align=center;verticalAlign=middle;resizable=0;points=[];autosize=1;strokeColor=none;fillColor=none;" vertex="1" parent="1">
          <mxGeometry x="782.5" y="431" width="34" height="26" as="geometry" />
        </mxCell>
        <mxCell id="AZcYiFU8isNGm3yY8wKM-62" value="f[i]" style="text;html=1;align=center;verticalAlign=middle;resizable=0;points=[];autosize=1;strokeColor=none;fillColor=none;" vertex="1" parent="1">
          <mxGeometry x="942.5" y="431" width="31" height="26" as="geometry" />
        </mxCell>
        <mxCell id="AZcYiFU8isNGm3yY8wKM-64" value="" style="endArrow=none;dashed=1;html=1;rounded=0;" edge="1" parent="1">
          <mxGeometry width="50" height="50" relative="1" as="geometry">
            <mxPoint x="594" y="645" as="sourcePoint" />
            <mxPoint x="594" y="434" as="targetPoint" />
          </mxGeometry>
        </mxCell>
        <mxCell id="AZcYiFU8isNGm3yY8wKM-65" value="" style="endArrow=none;dashed=1;html=1;rounded=0;" edge="1" parent="1">
          <mxGeometry width="50" height="50" relative="1" as="geometry">
            <mxPoint x="908" y="645" as="sourcePoint" />
            <mxPoint x="908" y="434" as="targetPoint" />
          </mxGeometry>
        </mxCell>
        <mxCell id="AZcYiFU8isNGm3yY8wKM-67" value="$$step\_one$$" style="text;html=1;align=center;verticalAlign=middle;resizable=0;points=[];autosize=1;strokeColor=none;fillColor=none;" vertex="1" parent="1">
          <mxGeometry x="554" y="408" width="97" height="26" as="geometry" />
        </mxCell>
        <mxCell id="AZcYiFU8isNGm3yY8wKM-68" value="$$step\_one$$" style="text;html=1;align=center;verticalAlign=middle;resizable=0;points=[];autosize=1;strokeColor=none;fillColor=none;" vertex="1" parent="1">
          <mxGeometry x="858" y="405" width="97" height="26" as="geometry" />
        </mxCell>
        <mxCell id="AZcYiFU8isNGm3yY8wKM-69" value="前缀" style="text;html=1;align=center;verticalAlign=middle;resizable=0;points=[];autosize=1;strokeColor=none;fillColor=none;" vertex="1" parent="1">
          <mxGeometry x="527.5" y="394" width="42" height="26" as="geometry" />
        </mxCell>
        <mxCell id="AZcYiFU8isNGm3yY8wKM-70" value="主体" style="text;html=1;align=center;verticalAlign=middle;resizable=0;points=[];autosize=1;strokeColor=none;fillColor=none;" vertex="1" parent="1">
          <mxGeometry x="688.5" y="397" width="42" height="26" as="geometry" />
        </mxCell>
        <mxCell id="AZcYiFU8isNGm3yY8wKM-71" value="后缀" style="text;html=1;align=center;verticalAlign=middle;resizable=0;points=[];autosize=1;strokeColor=none;fillColor=none;" vertex="1" parent="1">
          <mxGeometry x="916.5" y="397" width="42" height="26" as="geometry" />
        </mxCell>
        <mxCell id="AZcYiFU8isNGm3yY8wKM-77" style="rounded=0;orthogonalLoop=1;jettySize=auto;html=1;entryX=1;entryY=0;entryDx=0;entryDy=0;" edge="1" parent="1" source="AZcYiFU8isNGm3yY8wKM-72" target="AZcYiFU8isNGm3yY8wKM-14">
          <mxGeometry relative="1" as="geometry" />
        </mxCell>
        <mxCell id="AZcYiFU8isNGm3yY8wKM-72" value="D" style="ellipse;whiteSpace=wrap;html=1;aspect=fixed;" vertex="1" parent="1">
          <mxGeometry x="784" y="460" width="30" height="30" as="geometry" />
        </mxCell>
        <mxCell id="AZcYiFU8isNGm3yY8wKM-73" style="edgeStyle=orthogonalEdgeStyle;rounded=0;orthogonalLoop=1;jettySize=auto;html=1;" edge="1" parent="1" source="AZcYiFU8isNGm3yY8wKM-74" target="AZcYiFU8isNGm3yY8wKM-72">
          <mxGeometry relative="1" as="geometry" />
        </mxCell>
        <mxCell id="AZcYiFU8isNGm3yY8wKM-82" style="edgeStyle=orthogonalEdgeStyle;rounded=0;orthogonalLoop=1;jettySize=auto;html=1;" edge="1" parent="1" source="AZcYiFU8isNGm3yY8wKM-74" target="AZcYiFU8isNGm3yY8wKM-14">
          <mxGeometry relative="1" as="geometry" />
        </mxCell>
        <mxCell id="AZcYiFU8isNGm3yY8wKM-74" value="D" style="ellipse;whiteSpace=wrap;html=1;aspect=fixed;" vertex="1" parent="1">
          <mxGeometry x="784" y="526" width="30" height="30" as="geometry" />
        </mxCell>
        <mxCell id="AZcYiFU8isNGm3yY8wKM-75" style="edgeStyle=orthogonalEdgeStyle;rounded=0;orthogonalLoop=1;jettySize=auto;html=1;exitX=0.5;exitY=0;exitDx=0;exitDy=0;" edge="1" parent="1" source="AZcYiFU8isNGm3yY8wKM-76" target="AZcYiFU8isNGm3yY8wKM-74">
          <mxGeometry relative="1" as="geometry" />
        </mxCell>
        <mxCell id="AZcYiFU8isNGm3yY8wKM-78" style="edgeStyle=orthogonalEdgeStyle;rounded=0;orthogonalLoop=1;jettySize=auto;html=1;" edge="1" parent="1" source="AZcYiFU8isNGm3yY8wKM-76" target="AZcYiFU8isNGm3yY8wKM-15">
          <mxGeometry relative="1" as="geometry" />
        </mxCell>
        <mxCell id="AZcYiFU8isNGm3yY8wKM-83" style="rounded=0;orthogonalLoop=1;jettySize=auto;html=1;exitX=0;exitY=0;exitDx=0;exitDy=0;entryX=1;entryY=1;entryDx=0;entryDy=0;" edge="1" parent="1" source="AZcYiFU8isNGm3yY8wKM-76" target="AZcYiFU8isNGm3yY8wKM-14">
          <mxGeometry relative="1" as="geometry" />
        </mxCell>
        <mxCell id="AZcYiFU8isNGm3yY8wKM-76" value="D" style="ellipse;whiteSpace=wrap;html=1;aspect=fixed;" vertex="1" parent="1">
          <mxGeometry x="784" y="592" width="30" height="30" as="geometry" />
        </mxCell>
        <mxCell id="AZcYiFU8isNGm3yY8wKM-79" value="e" style="text;html=1;align=center;verticalAlign=middle;resizable=0;points=[];autosize=1;strokeColor=none;fillColor=none;" vertex="1" parent="1">
          <mxGeometry x="863" y="431" width="25" height="26" as="geometry" />
        </mxCell>
        <mxCell id="AZcYiFU8isNGm3yY8wKM-81" value="连续多Kleene" style="text;html=1;align=center;verticalAlign=middle;resizable=0;points=[];autosize=1;strokeColor=none;fillColor=none;" vertex="1" parent="1">
          <mxGeometry x="716.5" y="629.5" width="91" height="26" as="geometry" />
        </mxCell>
        <mxCell id="AZcYiFU8isNGm3yY8wKM-88" value="$$A^*$$" style="text;html=1;align=center;verticalAlign=middle;resizable=0;points=[];autosize=1;strokeColor=none;fillColor=none;" vertex="1" parent="1">
          <mxGeometry x="543.5" y="394" width="63" height="26" as="geometry" />
        </mxCell>
        <mxCell id="AZcYiFU8isNGm3yY8wKM-89" value="$$BC^*D^*E$$" style="text;html=1;align=center;verticalAlign=middle;resizable=0;points=[];autosize=1;strokeColor=none;fillColor=none;" vertex="1" parent="1">
          <mxGeometry x="730.5" y="397" width="99" height="26" as="geometry" />
        </mxCell>
        <mxCell id="AZcYiFU8isNGm3yY8wKM-90" value="$$F^*$$" style="text;html=1;align=center;verticalAlign=middle;resizable=0;points=[];autosize=1;strokeColor=none;fillColor=none;" vertex="1" parent="1">
          <mxGeometry x="934.5" y="397" width="62" height="26" as="geometry" />
        </mxCell>
        <mxCell id="AZcYiFU8isNGm3yY8wKM-97" value="(c) 模式所有可能组合" style="text;html=1;align=center;verticalAlign=middle;resizable=0;points=[];autosize=1;strokeColor=none;fillColor=none;" vertex="1" parent="1">
          <mxGeometry x="657" y="674" width="131" height="26" as="geometry" />
        </mxCell>
      </root>
    </mxGraphModel>
  </diagram>
</mxfile>
